<svg xmlns="http://www.w3.org/2000/svg" width="55" height="43" viewBox="0 0 55 43">
<path fill="#FFF" d="M51.5 4H23.036c-.663 0-1.3-.263-1.768-.732L17.732.732C17.262.262 16.628 0 15.964 0H3.5C1.575 0 0 1.575 0 3.5v36C0 41.425 1.575 43 3.5 43h48c1.925 0 3.5-1.575 3.5-3.5v-32C55 5.575 53.425 4 51.5 4z"/>
<path fill="#CCC" d="M51.5 4H23.036c-.663 0-1.3-.263-1.768-.732L17.732.732C17.262.262 16.628 0 15.964 0H3.5C1.575 0 0 1.575 0 3.5v36C0 41.425 1.575 43 3.5 43h48c1.925 0 3.5-1.575 3.5-3.5v-32C55 5.575 53.425 4 51.5 4zM54 39.5c0 1.378-1.122 2.5-2.5 2.5h-48C2.122 42 1 40.878 1 39.5V12h53v27.5zM54 11H1V3.5C1 2.122 2.122 1 3.5 1h12.464c.4 0 .777.156 1.06.44l.06.057.065.048 3.473 2.492c.654.622 1.507.963 2.413.963H51.5C52.878 5 54 6.122 54 7.5V11z"/>
</svg>