<svg width="71" height="71" xmlns="http://www.w3.org/2000/svg" xmlns:svg="http://www.w3.org/2000/svg" enable-background="new 0 0 100 100" version="1.1" xml:space="preserve">
<path d="m14.21,69.24l36,0l0,0c7.2,0 13,-5.8 13,-13l0,-22c0,-1.7 -1.3,-3 -3,-3l0,0c-1.7,0 -3,1.3 -3,3l0,22c0,3.9 -3.1,7 -7,7l0,0l-36,0c-3.9,0 -7,-3.1 -7,-7l0,-36c0,-3.9 3.1,-7 7,-7l0,0l22,0l0,0c1.7,0 3,-1.3 3,-3s-1.3,-3 -3,-3l-22,0l0,0c-7.2,0 -13,5.8 -13,13l0,0l0,36c0,7.2 5.8,13 13,13z"/>
<path d="m69.61,22.34l0,-18.3c0,-0.2 0,-0.4 -0.1,-0.6c0,-0.1 0,-0.2 -0.1,-0.2c0,-0.1 -0.1,-0.2 -0.1,-0.3c0,-0.1 -0.1,-0.2 -0.2,-0.3c0,-0.1 -0.1,-0.2 -0.1,-0.2c-0.2,-0.3 -0.5,-0.6 -0.8,-0.8l-0.2,-0.1c-0.2,-0.3 -0.4,-0.4 -0.6,-0.4l-0.3,-0.1c-0.2,0 -0.4,-0.1 -0.6,-0.1l0,0l-18.3,0l0,0c-1.7,0 -3,1.3 -3,3s1.3,3 3,3l11.1,0l-27.5,27.6c-1.2,1.2 -1.2,3.1 0,4.2c1.2,1.2 3.1,1.2 4.2,0l27.6,-27.5l0,11.1c0,1.7 1.3,3 3,3l0,0c1.6,0 2.9,-1.4 3,-3z"/>
</svg>