<svg width="45" height="58" xmlns="http://www.w3.org/2000/svg" xmlns:svg="http://www.w3.org/2000/svg">
<defs>
	<symbol id="icon-file" viewBox="0 0 45 58" xmlns:xlink="http://www.w3.org/1999/xlink" fill="none">
	<g>
		<path d="m44.97,15c-0.04,-0.35 -0.13,-0.69 -0.28,-1c-0.15,-0.3 -0.33,-0.57 -0.57,-0.81l-12,-12.01c-0.33,-0.32 -0.71,-0.57 -1.12,-0.77c-0.32,-0.15 -0.65,-0.27 -1,-0.34c-0.24,-0.04 -0.49,-0.07 -0.74,-0.07l-25.76,0c-1.92,0 -3.5,1.58 -3.5,3.5l0,51c0,1.92 1.58,3.5 3.5,3.5l38,0c1.92,0 3.5,-1.58 3.5,-3.5l0,-39.19c0,-0.1 -0.02,-0.21 -0.03,-0.31z" fill="#FFF"/>
		<path d="m44,15.31c0,-0.1 -0.01,-0.21 -0.03,-0.31l-10.97,0c-1.65,0 -3,-1.35 -3,-3l0,-10.9c-0.24,-0.06 -0.48,-0.1 -0.74,-0.1l-25.76,0c-1.38,0 -2.5,1.12 -2.5,2.5l0,32.5l43,0l0,-20.69z" fill="none" transform="matrix(1 0 0 1 0 0)"/>
		<path d="m31.41,1.89c-0.13,-0.13 -0.27,-0.23 -0.41,-0.33l0,10.44c0,1.1 0.9,2 2,2l10.5,0c-0.03,-0.03 -0.05,-0.07 -0.09,-0.1l-12,-12.01z" fill="none"/>
		<path d="m44.97,15c-0.04,-0.35 -0.13,-0.69 -0.28,-1c-0.15,-0.3 -0.33,-0.57 -0.57,-0.81l-12,-12.01c-0.33,-0.32 -0.71,-0.57 -1.12,-0.77c-0.32,-0.15 -0.65,-0.27 -1,-0.34c-0.24,-0.04 -0.49,-0.07 -0.74,-0.07l-25.76,0c-1.92,0 -3.5,1.58 -3.5,3.5l0,32.5l1,0l0,-32.5c0,-1.38 1.12,-2.5 2.5,-2.5l25.76,0c0.26,0 0.5,0.04 0.74,0.1l0,10.9c0,1.65 1.35,3 3,3l10.97,0c0.02,0.1 0.03,0.21 0.03,0.31l0,20.69l1,0l0,-20.69c0,-0.1 -0.02,-0.21 -0.03,-0.31zm-11.97,-1c-1.1,0 -2,-0.9 -2,-2l0,-10.45c0.14,0.1 0.28,0.21 0.41,0.34l12,12.01c0.04,0.03 0.06,0.07 0.09,0.1l-10.5,0z" fill="#CCC"/>
		<path fill="#F1F1F1" id="inner" d="m3.5,57l38,0c1.38,0 2.5,-1.12 2.5,-2.5l0,-18.5l-43,0l0,18.5c0,1.38 1.12,2.5 2.5,2.5z" transform="matrix(1 0 0 1 0 0)"/>
		<path fill="#CCC" id="border" d="m44,54.5c0,1.38 -1.12,2.5 -2.5,2.5l-38,0c-1.38,0 -2.5,-1.12 -2.5,-2.5l0,-18.5l-1,0l0,18.5c0,1.92 1.58,3.5 3.5,3.5l38,0c1.92,0 3.5,-1.58 3.5,-3.5l0,-18.5l-1,0l0,18.5z"/>
	</g>
	</symbol>
</defs>
</svg>